<svg width="201" height="35" viewBox="0 0 201 35" fill="none" xmlns="http://www.w3.org/2000/svg">
<path d="M9.30169 2.68034V7.09578H11.134V8.0883H9.30169V14.107H8.09285V2.68034H9.30169ZM6.23506 3.77466V4.75445H2.11229V10.2642C4.02734 10.2578 5.46522 10.1751 7.08761 9.88247L7.2403 10.9004C5.45886 11.2186 3.94463 11.2822 1.81962 11.2695H0.903447V3.77466H6.23506ZM21.6038 4.29637V5.28889H19.9878V6.73949H21.6038V7.74474H19.9878V9.41166H18.779V2.68034H19.9878V4.29637H21.6038ZM14.2363 3.34202C15.9796 3.34202 17.2647 4.44906 17.2775 6.05236C17.2647 7.64294 15.9796 8.74998 14.2363 8.76271C12.493 8.74998 11.1951 7.64294 11.2078 6.05236C11.1951 4.44906 12.493 3.34202 14.2363 3.34202ZM14.2363 4.35999C13.1674 4.35999 12.3785 5.04712 12.3912 6.05236C12.3785 7.07033 13.1674 7.73201 14.2363 7.74474C15.3052 7.73201 16.0941 7.07033 16.0941 6.05236C16.0941 5.04712 15.3052 4.35999 14.2363 4.35999ZM16.3104 9.71705C18.639 9.71705 20.0896 10.5187 20.0896 11.893C20.0896 13.2545 18.639 14.0689 16.3104 14.0561C13.9564 14.0689 12.4803 13.2545 12.4803 11.893C12.4803 10.5187 13.9564 9.71705 16.3104 9.71705ZM16.3104 10.6968C14.6562 10.6968 13.6764 11.1295 13.6891 11.893C13.6764 12.6692 14.6562 13.0891 16.3104 13.0891C17.9519 13.0891 18.9062 12.6692 18.9062 11.893C18.9062 11.1295 17.9519 10.6968 16.3104 10.6968ZM30.5976 2.69307V6.35775H32.2518V7.363H30.5976V11.2186H29.3888V2.69307H30.5976ZM28.4471 4.01643V4.99622H21.6522V4.01643H24.4516V2.68034H25.6604V4.01643H28.4471ZM25.0497 5.54338C26.6911 5.54338 27.8109 6.39593 27.8109 7.69384C27.8109 8.99175 26.6911 9.83157 25.0497 9.83157C23.3955 9.83157 22.2757 8.99175 22.2757 7.69384C22.2757 6.39593 23.3955 5.54338 25.0497 5.54338ZM25.0497 6.47228C24.0826 6.47228 23.4336 6.94309 23.4464 7.69384C23.4336 8.43187 24.0826 8.88995 25.0497 8.88995C26.0167 8.88995 26.6657 8.43187 26.6784 7.69384C26.6657 6.94309 26.0167 6.47228 25.0497 6.47228ZM31.0811 12.86V13.8398H23.37V10.5442H24.5789V12.86H31.0811ZM36.0895 13H34.6008L37.9092 3.78738H39.5252L42.8463 13H41.3575L40.5177 10.5696H36.9294L36.0895 13ZM37.3365 9.39894H40.1105L38.749 5.46703H38.6854L37.3365 9.39894ZM44.7652 3.78738V13H43.3655V3.78738H44.7652ZM52.1022 5.58155C52.1022 7.66839 53.2728 9.7425 55.0161 10.5314L54.2781 11.4985C52.9802 10.8495 52.0067 9.55799 51.5041 7.99923C51.0015 9.6407 50.0026 11.0277 48.692 11.7148L47.9285 10.735C49.6972 9.8952 50.8806 7.69384 50.8806 5.58155V3.63469H52.1022V5.58155ZM57.4974 2.68034V14.107H56.3013V7.45207H53.7564V6.47228H56.3013V2.68034H57.4974ZM68.0436 2.68034V14.107H66.8347V2.68034H68.0436ZM60.447 3.63469V6.56135H63.5136V3.63469H64.7097V11.3713H59.2381V3.63469H60.447ZM60.447 10.3787H63.5136V7.51569H60.447V10.3787ZM75.0014 4.29637C75.0014 6.15416 76.9864 7.91016 79.1751 8.30462L78.6152 9.30986C76.7956 8.9154 75.1159 7.71929 74.3779 6.11599C73.6271 7.70656 71.9538 8.90268 70.1279 9.30986L69.5934 8.30462C71.7566 7.89743 73.7289 6.15416 73.7289 4.29637V3.43109H75.0014V4.29637ZM79.6459 11.5748V12.5801H69.2117V11.5748H79.6459ZM90.2429 7.91016V8.83905H79.8087V7.91016H90.2429ZM88.9577 9.6407V12.1475H82.2646V13.0891H89.314V13.9416H81.0558V11.3458H87.7616V10.506H81.043V9.6407H88.9577ZM88.9323 2.97301V5.44158H82.3409V6.30686H89.1232V7.1594H81.1448V4.63993H87.7235V3.82556H81.1194V2.97301H88.9323ZM98.7379 3.68559V9.00447H93.4063V3.68559H98.7379ZM94.5897 4.66538V8.05013H97.5545V4.66538H94.5897ZM101.919 2.66762V6.07781H103.573V7.09578H101.919V11.0277H100.71V2.66762H101.919ZM102.403 12.86V13.8398H94.6915V10.226H95.9003V12.86H102.403ZM114.221 7.1594V8.15192H112.452V14.0689H111.244V2.68034H112.452V7.1594H114.221ZM105.199 3.78738V10.2006C106.79 10.2006 108.451 10.067 110.264 9.6916L110.404 10.7096C108.457 11.104 106.65 11.2058 104.945 11.2058H104.003V3.78738H105.199ZM124.615 11.6639V12.6692H114.18V11.6639H118.774V9.32259H115.377V3.45654H116.585V5.41613H122.184V3.45654H123.38V9.32259H119.97V11.6639H124.615ZM116.585 8.34279H122.184V6.39593H116.585V8.34279ZM128.264 5.79787C128.264 7.61749 129.028 9.56436 130.554 10.4933L129.88 11.4221C128.811 10.7796 128.086 9.6407 127.704 8.31734C127.278 9.76795 126.495 11.0022 125.388 11.6766L124.638 10.7732C126.254 9.80612 127.093 7.79563 127.093 5.84877V3.72376H128.264V5.79787ZM134.601 2.68034V14.0816H133.443V2.68034H134.601ZM132.234 2.89666V13.5217H131.089V7.69384H129.32V6.68859H131.089V2.89666H132.234ZM145.834 11.6512V12.6564H135.4V11.6512H137.894V8.67363C136.959 8.15829 136.393 7.33755 136.393 6.31958C136.393 4.52541 138.149 3.34202 140.592 3.34202C143.048 3.34202 144.804 4.52541 144.804 6.31958C144.804 7.32482 144.256 8.13284 143.34 8.64818V11.6512H145.834ZM140.592 4.30909C138.797 4.30909 137.563 5.08529 137.563 6.31958C137.563 7.54114 138.797 8.34279 140.592 8.34279C142.373 8.34279 143.633 7.54114 143.633 6.31958C143.633 5.08529 142.373 4.30909 140.592 4.30909ZM139.09 11.6512H142.119V9.10627C141.654 9.22715 141.139 9.28441 140.592 9.28441C140.057 9.28441 139.548 9.22715 139.09 9.11899V11.6512ZM148.109 3.78738L147.995 10.3406H146.735L146.621 3.78738H148.109ZM147.371 13.0891C146.875 13.0891 146.455 12.6819 146.468 12.1856C146.455 11.6894 146.875 11.2822 147.371 11.2822C147.855 11.2822 148.275 11.6894 148.275 12.1856C148.275 12.6819 147.855 13.0891 147.371 13.0891Z" fill="white"/>
<path d="M12.9997 32.151V25.7886H11.8647V31.3996H9.59475V19.4901H11.8647V23.5985H12.9997V19.2344H15.2697V32.151H12.9997ZM5.48637 19.7139C5.45439 20.801 5.37447 21.8347 5.24658 22.8152H7.08496C7.2235 23.9129 7.45263 24.92 7.77235 25.8366C8.09207 26.7531 8.53968 27.7389 9.11517 28.7939L6.95707 29.9449C5.96594 27.9946 5.38512 26.2948 5.21461 24.8454H4.91087C4.5059 26.7318 3.85047 28.4849 2.94461 30.1048L0.754537 28.8739C1.54317 27.4671 2.10801 26.0497 2.44904 24.6216C2.80073 23.1829 3.01921 21.5044 3.10447 19.5861L5.48637 19.7139ZM15.8044 29.1456H22.1348V27.6749H17.7547V22.9271H26.483V21.8241H17.5948V19.9537H28.9128V24.6696H20.1845V25.8046H29.2485V27.6749H24.5647V29.1456H30.8631V31.1599H15.8044V29.1456ZM42.476 32.151V30.3446H39.1509V28.5062H42.476V19.2344H44.9059V32.151H42.476ZM36.4014 25.2291C34.9733 25.2291 33.8649 24.968 33.0763 24.4458C32.2983 23.9236 31.9093 23.1989 31.9093 22.2717C31.9093 21.3445 32.2983 20.6198 33.0763 20.0976C33.8649 19.5754 34.9733 19.3143 36.4014 19.3143C37.8188 19.3143 38.9165 19.5754 39.6945 20.0976C40.4724 20.6198 40.8614 21.3445 40.8614 22.2717C40.8614 23.1989 40.4724 23.9236 39.6945 24.4458C38.9165 24.968 37.8188 25.2291 36.4014 25.2291ZM36.4014 23.5506C37.7442 23.5506 38.4156 23.1243 38.4156 22.2717C38.4156 21.4191 37.7442 20.9928 36.4014 20.9928C35.7193 20.9928 35.2077 21.0994 34.8667 21.3125C34.5363 21.515 34.3711 21.8347 34.3711 22.2717C34.3711 23.1243 35.0479 23.5506 36.4014 23.5506ZM34.7708 26.1243C36.0497 26.1243 37.2166 26.0657 38.2717 25.9485C39.3374 25.8312 40.3765 25.6447 41.389 25.3889L41.8366 27.2113C40.4405 27.5737 38.9911 27.8081 37.4884 27.9147V31.8153H35.0585V28.0106H30.9821V26.1243H34.7708ZM57.3021 28.6501V19.2344H59.7319V28.6501H57.3021ZM55.3038 21.5523H51.7549C51.6697 22.0532 51.5525 22.4955 51.4033 22.8792H52.6661C53.0285 23.4014 53.4228 23.849 53.8491 24.222C54.2754 24.5843 54.8935 25.0213 55.7035 25.5328L54.5525 27.2913C53.7638 26.8543 53.1297 26.4174 52.6502 25.9804C52.1706 25.5435 51.7176 25.0639 51.2914 24.5417H50.508C49.7087 25.6927 48.6057 26.6625 47.199 27.4511L46.0959 25.6447C47.0764 25.0799 47.8437 24.4724 48.3979 23.8223C48.9627 23.1722 49.3357 22.4156 49.5169 21.5523H46.5276V19.7139H55.3038V21.5523ZM48.6377 32.2309V27.8987H51.1475V30.2167H59.9717V32.2309H48.6377ZM73.3151 20.0976L77.903 31H74.8977L74.1144 29.0657H68.2955L67.5122 31H64.5068L69.0948 20.0976H73.3151ZM71.5246 22.6234H70.8852L69.2546 26.6678H73.1552L71.5246 22.6234ZM81.0768 20.0976V31H78.2953V20.0976H81.0768ZM92.9013 20.0976C93.7432 20.0976 94.4892 20.2575 95.1393 20.5772C95.8 20.8862 96.3116 21.3339 96.6739 21.92C97.0469 22.5062 97.2335 23.1829 97.2335 23.9502C97.2335 24.7175 97.0523 25.3889 96.6899 25.9644C96.3276 26.5293 95.8214 26.9662 95.1713 27.2753C94.5318 27.5843 93.7965 27.7389 92.9652 27.7389H89.2085V31H86.427V20.0976H92.9013ZM92.7894 25.277C93.2903 25.277 93.6846 25.1598 93.9723 24.9254C94.2707 24.6909 94.4199 24.3658 94.4199 23.9502C94.4199 23.5346 94.2707 23.2095 93.9723 22.9751C93.6846 22.7406 93.2903 22.6234 92.7894 22.6234H89.2085V25.277H92.7894ZM102.521 31.2558C101.487 31.2558 100.56 31.0586 99.7395 30.6643C98.9295 30.27 98.2954 29.7211 97.8372 29.0177C97.3789 28.3144 97.1498 27.5151 97.1498 26.6199C97.1498 25.7246 97.3789 24.9254 97.8372 24.222C98.2954 23.5186 98.9295 22.9697 99.7395 22.5754C100.56 22.1811 101.487 21.9839 102.521 21.9839C103.555 21.9839 104.477 22.1811 105.287 22.5754C106.107 22.9697 106.747 23.5186 107.205 24.222C107.663 24.9254 107.892 25.7246 107.892 26.6199C107.892 27.5151 107.663 28.3144 107.205 29.0177C106.747 29.7211 106.107 30.27 105.287 30.6643C104.477 31.0586 103.555 31.2558 102.521 31.2558ZM99.9313 26.6199C99.9313 27.2806 100.171 27.8188 100.651 28.2344C101.141 28.6501 101.764 28.8579 102.521 28.8579C103.278 28.8579 103.896 28.6501 104.375 28.2344C104.866 27.8188 105.111 27.2806 105.111 26.6199C105.111 25.9591 104.866 25.4209 104.375 25.0053C103.896 24.5896 103.278 24.3818 102.521 24.3818C101.764 24.3818 101.141 24.5896 100.651 25.0053C100.171 25.4209 99.9313 25.9591 99.9313 26.6199ZM111.196 22.2397V23.3108C111.92 22.4689 112.815 22.0479 113.881 22.0479C114.222 22.0479 114.595 22.0905 115 22.1758C115.416 22.261 115.81 22.3783 116.183 22.5275L115.352 24.7815C114.766 24.5577 114.169 24.4458 113.561 24.4458C112.57 24.4458 111.824 24.8081 111.323 25.5328V31H108.606V22.2397H111.196ZM121.871 31.2558C120.635 31.2558 119.66 30.952 118.946 30.3446C118.232 29.7265 117.874 28.8899 117.874 27.8348V24.5737H116.02V22.2397H117.874V20.4173L120.592 19.4582V22.2397H123.757V24.5737H120.592V27.579C120.592 28.4742 121.061 28.9218 121.999 28.9218C122.255 28.9218 122.548 28.8952 122.878 28.8419C123.208 28.778 123.518 28.6927 123.805 28.5861L124.589 30.7123C123.704 31.0746 122.798 31.2558 121.871 31.2558ZM131.389 30.1368C131.006 30.4885 130.537 30.7655 129.983 30.968C129.429 31.1599 128.821 31.2558 128.16 31.2558C127.414 31.2558 126.759 31.1385 126.194 30.9041C125.64 30.6696 125.208 30.3339 124.899 29.897C124.601 29.46 124.452 28.9538 124.452 28.3783C124.452 27.5044 124.803 26.817 125.507 26.3161C126.21 25.8152 127.169 25.5648 128.384 25.5648H131.166C130.889 24.7335 130.164 24.3179 128.992 24.3179C128.512 24.3179 127.974 24.3872 127.377 24.5257C126.78 24.6536 126.215 24.8241 125.682 25.0373L124.771 22.9431C125.443 22.634 126.146 22.3996 126.881 22.2397C127.627 22.0692 128.352 21.9839 129.056 21.9839C130.579 21.9839 131.768 22.3463 132.62 23.071C133.484 23.785 133.915 24.7762 133.915 26.0444V31H131.389V30.1368ZM127.169 28.1865C127.169 28.4316 127.318 28.6288 127.617 28.778C127.915 28.9165 128.32 28.9858 128.832 28.9858C129.375 28.9858 129.86 28.9005 130.286 28.73C130.723 28.5595 131.048 28.325 131.262 28.0266V27.4831H128.736C127.691 27.4831 127.169 27.7176 127.169 28.1865ZM137.657 19.4582V31H134.939V19.4582H137.657ZM154.253 32.151V25.7886H153.118V31.3996H150.848V19.4901H153.118V23.5985H154.253V19.2344H156.523V32.151H154.253ZM146.739 19.7139C146.707 20.801 146.627 21.8347 146.499 22.8152H148.338C148.476 23.9129 148.706 24.92 149.025 25.8366C149.345 26.7531 149.793 27.7389 150.368 28.7939L148.21 29.9449C147.219 27.9946 146.638 26.2948 146.468 24.8454H146.164C145.759 26.7318 145.103 28.4849 144.198 30.1048L142.007 28.8739C142.796 27.4671 143.361 26.0497 143.702 24.6216C144.054 23.1829 144.272 21.5044 144.357 19.5861L146.739 19.7139ZM168.583 32.151V19.2344H171.013V32.151H168.583ZM166.105 29.833H158.08V20.0497H166.105V29.833ZM163.643 27.7868V22.0799H160.542V27.7868H163.643ZM181.255 25.2611C182.065 24.7389 182.47 24.1793 182.47 23.5825C182.47 23.1669 182.278 22.8419 181.895 22.6074C181.522 22.3623 181.005 22.2397 180.344 22.2397C179.864 22.2397 179.353 22.3143 178.809 22.4635C178.266 22.6127 177.626 22.8578 176.891 23.1989L175.948 21.0408C176.8 20.6145 177.584 20.3108 178.298 20.1296C179.012 19.9377 179.736 19.8418 180.472 19.8418C181.442 19.8418 182.284 19.9964 182.998 20.3054C183.712 20.6038 184.26 21.0354 184.644 21.6003C185.028 22.1651 185.22 22.8259 185.22 23.5825C185.22 24.3179 185.028 24.9627 184.644 25.5168C184.271 26.0604 183.653 26.5932 182.79 27.1154L180.296 28.6021H185.22V31H175.948V28.6021L181.255 25.2611ZM188.825 28.3463V31H186.044V28.3463H188.825ZM194.498 31.2558C193.358 31.2558 192.367 31.0266 191.525 30.5684C190.693 30.0995 190.054 29.4387 189.606 28.5861C189.159 27.7229 188.935 26.7104 188.935 25.5488C188.935 24.3872 189.159 23.38 189.606 22.5275C190.054 21.6642 190.693 21.0035 191.525 20.5452C192.367 20.0763 193.358 19.8418 194.498 19.8418C195.638 19.8418 196.624 20.0763 197.455 20.5452C198.297 21.0035 198.942 21.6642 199.39 22.5275C199.837 23.38 200.061 24.3872 200.061 25.5488C200.061 26.7104 199.837 27.7229 199.39 28.5861C198.942 29.4387 198.297 30.0995 197.455 30.5684C196.624 31.0266 195.638 31.2558 194.498 31.2558ZM191.78 25.5488C191.78 27.7122 192.686 28.7939 194.498 28.7939C196.31 28.7939 197.216 27.7122 197.216 25.5488C197.216 23.3854 196.31 22.3037 194.498 22.3037C192.686 22.3037 191.78 23.3854 191.78 25.5488Z" fill="white"/>
</svg>
