<svg width="256" height="94" viewBox="0 0 256 94" fill="none" xmlns="http://www.w3.org/2000/svg">
<path d="M95.6317 25.9767V15.05H93.6824V24.6864H89.7839V4.23307H93.6824V11.2888H95.6317V3.79381H99.5301V25.9767H95.6317ZM82.7283 4.61743C82.6733 6.48431 82.5361 8.25967 82.3164 9.94352H85.4737C85.7116 11.8287 86.1051 13.5583 86.6542 15.1323C87.2033 16.7064 87.972 18.3994 88.9603 20.2113L85.254 22.188C83.5519 18.8386 82.5544 15.9194 82.2615 13.4302H81.7399C81.0444 16.6698 79.9188 19.6806 78.3631 22.4626L74.6018 20.3486C75.9562 17.9327 76.9263 15.4984 77.512 13.0458C78.116 10.575 78.4912 7.69229 78.6376 4.3978L82.7283 4.61743ZM101.617 20.8153H112.488V18.2896H104.966V10.1357H119.956V8.24137H104.692V5.02924H124.129V13.1282H109.139V15.0774H124.706V18.2896H116.661V20.8153H127.478V24.2745H101.617V20.8153ZM148.591 25.9767V22.8744H142.88V19.7172H148.591V3.79381H152.764V25.9767H148.591ZM138.158 14.0891C135.705 14.0891 133.802 13.6407 132.448 12.7438C131.111 11.847 130.443 10.6024 130.443 9.01008C130.443 7.41775 131.111 6.17316 132.448 5.27633C133.802 4.3795 135.705 3.93108 138.158 3.93108C140.592 3.93108 142.477 4.3795 143.814 5.27633C145.15 6.17316 145.818 7.41775 145.818 9.01008C145.818 10.6024 145.15 11.847 143.814 12.7438C142.477 13.6407 140.592 14.0891 138.158 14.0891ZM138.158 11.2064C140.464 11.2064 141.617 10.4743 141.617 9.01008C141.617 7.54586 140.464 6.81376 138.158 6.81376C136.987 6.81376 136.108 6.99678 135.522 7.36284C134.955 7.71059 134.671 8.25967 134.671 9.01008C134.671 10.4743 135.834 11.2064 138.158 11.2064ZM135.358 15.6265C137.554 15.6265 139.558 15.5258 141.37 15.3245C143.2 15.1232 144.985 14.8029 146.724 14.3636L147.492 17.4934C145.095 18.1157 142.606 18.5183 140.025 18.7014V25.4002H135.852V18.8661H128.851V15.6265H135.358ZM175.221 19.9643V3.79381H179.394V19.9643H175.221ZM171.789 7.77465H165.694C165.548 8.63488 165.347 9.39444 165.09 10.0533H167.259C167.882 10.9502 168.559 11.7189 169.291 12.3595C170.023 12.9818 171.085 13.7322 172.476 14.6107L170.499 17.6307C169.144 16.8802 168.055 16.1298 167.232 15.3794C166.408 14.629 165.63 13.8054 164.898 12.9086H163.553C162.18 14.8853 160.286 16.5508 157.87 17.9052L155.976 14.8029C157.66 13.8328 158.977 12.7896 159.929 11.6731C160.899 10.5567 161.54 9.25717 161.851 7.77465H156.717V4.61743H171.789V7.77465ZM160.341 26.114V18.6739H164.651V22.6548H179.806V26.114H160.341ZM15.8959 35.2763L23.7753 54H18.6139L17.2686 50.6781H7.27537L5.93012 54H0.768753L8.64807 35.2763H15.8959ZM12.8211 39.6141H11.7229L8.92261 46.5599H15.6214L12.8211 39.6141ZM31.2179 35.2763V54H26.4409V35.2763H31.2179ZM55.5089 35.2763C56.9549 35.2763 58.236 35.5509 59.3525 36.1C60.4873 36.6307 61.3658 37.3994 61.9881 38.4061C62.6287 39.4127 62.949 40.575 62.949 41.8928C62.949 43.2106 62.6378 44.3636 62.0156 45.352C61.3933 46.322 60.5239 47.0724 59.4074 47.6032C58.3093 48.134 57.0464 48.3994 55.6188 48.3994H49.1671V54H44.39V35.2763H55.5089ZM55.3168 44.1714C56.177 44.1714 56.8542 43.9701 57.3484 43.5675C57.8608 43.1648 58.1171 42.6066 58.1171 41.8928C58.1171 41.179 57.8608 40.6207 57.3484 40.2181C56.8542 39.8154 56.177 39.6141 55.3168 39.6141H49.1671V44.1714H55.3168ZM74.0218 54.4393C72.2464 54.4393 70.6541 54.1007 69.2448 53.4235C67.8538 52.7463 66.7647 51.8037 65.9777 50.5957C65.1907 49.3877 64.7972 48.015 64.7972 46.4776C64.7972 44.9402 65.1907 43.5675 65.9777 42.3595C66.7647 41.1515 67.8538 40.2089 69.2448 39.5317C70.6541 38.8545 72.2464 38.5159 74.0218 38.5159C75.7971 38.5159 77.3803 38.8545 78.7713 39.5317C80.1806 40.2089 81.2788 41.1515 82.0658 42.3595C82.8528 43.5675 83.2463 44.9402 83.2463 46.4776C83.2463 48.015 82.8528 49.3877 82.0658 50.5957C81.2788 51.8037 80.1806 52.7463 78.7713 53.4235C77.3803 54.1007 75.7971 54.4393 74.0218 54.4393ZM69.5742 46.4776C69.5742 47.6124 69.986 48.5366 70.8096 49.2504C71.6516 49.9643 72.7223 50.3212 74.0218 50.3212C75.3213 50.3212 76.3828 49.9643 77.2064 49.2504C78.0484 48.5366 78.4693 47.6124 78.4693 46.4776C78.4693 45.3428 78.0484 44.4185 77.2064 43.7047C76.3828 42.9909 75.3213 42.634 74.0218 42.634C72.7223 42.634 71.6516 42.9909 70.8096 43.7047C69.986 44.4185 69.5742 45.3428 69.5742 46.4776ZM90.9112 38.9552V40.7946C92.1558 39.3487 93.6932 38.6257 95.5234 38.6257C96.1091 38.6257 96.7497 38.6989 97.4452 38.8454C98.159 38.9918 98.8362 39.1931 99.4768 39.4493L98.0492 43.3204C97.0426 42.936 96.0176 42.7438 94.9744 42.7438C93.2722 42.7438 91.991 43.3661 91.1308 44.6107V54H86.4636V38.9552H90.9112ZM111.237 54.4393C109.114 54.4393 107.439 53.9176 106.213 52.8744C104.987 51.8128 104.374 50.3761 104.374 48.5641V42.9635H101.189V38.9552H104.374V35.8254L109.041 34.1782V38.9552H114.477V42.9635H109.041V48.1248C109.041 49.6623 109.846 50.431 111.457 50.431C111.896 50.431 112.399 50.3852 112.967 50.2937C113.534 50.1839 114.065 50.0375 114.559 49.8544L115.904 53.5058C114.385 54.1281 112.829 54.4393 111.237 54.4393ZM129.576 52.5175C128.917 53.1215 128.112 53.5973 127.16 53.9451C126.208 54.2745 125.165 54.4393 124.03 54.4393C122.749 54.4393 121.623 54.2379 120.653 53.8353C119.702 53.4326 118.96 52.8561 118.43 52.1057C117.917 51.3553 117.661 50.4859 117.661 49.4975C117.661 47.9967 118.265 46.8162 119.473 45.956C120.681 45.0957 122.328 44.6656 124.415 44.6656H129.192C128.716 43.238 127.471 42.5242 125.458 42.5242C124.634 42.5242 123.71 42.6432 122.685 42.8811C121.66 43.1007 120.69 43.3936 119.775 43.7596L118.21 40.1632C119.363 39.6324 120.571 39.2297 121.834 38.9552C123.115 38.6623 124.36 38.5159 125.568 38.5159C128.185 38.5159 130.226 39.1382 131.69 40.3828C133.172 41.6091 133.914 43.3112 133.914 45.4892V54H129.576V52.5175ZM122.328 49.1681C122.328 49.589 122.584 49.9276 123.097 50.1839C123.609 50.4218 124.305 50.5408 125.183 50.5408C126.117 50.5408 126.949 50.3944 127.682 50.1015C128.432 49.8087 128.99 49.406 129.356 48.8935V47.9601H125.019C123.225 47.9601 122.328 48.3628 122.328 49.1681ZM142.332 34.1782V54H137.664V34.1782H142.332ZM174.817 55.9767V45.05H172.868V54.6864H168.969V34.2331H172.868V41.2888H174.817V33.7938H178.715V55.9767H174.817ZM161.913 34.6174C161.858 36.4843 161.721 38.2597 161.502 39.9435H164.659C164.897 41.8287 165.29 43.5583 165.839 45.1323C166.388 46.7064 167.157 48.3994 168.145 50.2113L164.439 52.188C162.737 48.8386 161.74 45.9194 161.447 43.4302H160.925C160.23 46.6698 159.104 49.6806 157.548 52.4626L153.787 50.3486C155.141 47.9327 156.111 45.4984 156.697 43.0458C157.301 40.575 157.676 37.6923 157.823 34.3978L161.913 34.6174ZM201.42 55.9767V33.7938H205.593V55.9767H201.42ZM197.164 51.9959H183.382V35.194H197.164V51.9959ZM192.936 48.4817V38.6806H187.61V48.4817H192.936ZM218.661 44.144C220.052 43.2472 220.747 42.2863 220.747 41.2613C220.747 40.5475 220.418 39.9893 219.759 39.5866C219.118 39.1657 218.231 38.9552 217.096 38.9552C216.272 38.9552 215.394 39.0833 214.46 39.3395C213.527 39.5958 212.429 40.0167 211.166 40.6024L209.546 36.8961C211.01 36.164 212.356 35.6424 213.582 35.3312C214.808 35.0018 216.053 34.8371 217.316 34.8371C218.981 34.8371 220.427 35.1025 221.653 35.6332C222.88 36.1457 223.822 36.887 224.481 37.857C225.14 38.8271 225.47 39.9618 225.47 41.2613C225.47 42.5242 225.14 43.6315 224.481 44.5833C223.841 45.5167 222.779 46.4318 221.297 47.3287L217.014 49.8819H225.47V54H209.546V49.8819L218.661 44.144ZM233.654 49.4426V54H228.877V49.4426H233.654ZM245.388 54.4393C243.43 54.4393 241.728 54.0458 240.282 53.2587C238.854 52.4534 237.756 51.3187 236.987 49.8544C236.218 48.3719 235.834 46.6332 235.834 44.6382C235.834 42.6432 236.218 40.9136 236.987 39.4493C237.756 37.9668 238.854 36.8321 240.282 36.045C241.728 35.2397 243.43 34.8371 245.388 34.8371C247.346 34.8371 249.039 35.2397 250.467 36.045C251.913 36.8321 253.02 37.9668 253.789 39.4493C254.558 40.9136 254.942 42.6432 254.942 44.6382C254.942 46.6332 254.558 48.3719 253.789 49.8544C253.02 51.3187 251.913 52.4534 250.467 53.2587C249.039 54.0458 247.346 54.4393 245.388 54.4393ZM240.721 44.6382C240.721 48.3536 242.277 50.2113 245.388 50.2113C248.5 50.2113 250.055 48.3536 250.055 44.6382C250.055 40.9227 248.5 39.065 245.388 39.065C242.277 39.065 240.721 40.9227 240.721 44.6382Z" fill="#26247B"/>
<path d="M24.7472 72.6389V79.6393H27.6523V81.2128H24.7472V90.7551H22.8307V72.6389H24.7472ZM19.8853 74.3738V75.9272H13.3489V84.6626C16.3851 84.6525 18.6647 84.5214 21.2369 84.0574L21.479 85.6713C18.6547 86.1756 16.2539 86.2765 12.8849 86.2563H11.4324V74.3738H19.8853ZM44.2514 75.201V76.7745H41.6893V79.0744H44.2514V80.6681H41.6893V83.3109H39.7728V72.6389H41.6893V75.201H44.2514ZM32.5707 73.6879C35.3345 73.6879 37.3721 75.4431 37.3923 77.985C37.3721 80.5067 35.3345 82.2619 32.5707 82.2821C29.8068 82.2619 27.7491 80.5067 27.7693 77.985C27.7491 75.4431 29.8068 73.6879 32.5707 73.6879ZM32.5707 75.3018C30.8761 75.3018 29.6253 76.3912 29.6455 77.985C29.6253 79.5989 30.8761 80.648 32.5707 80.6681C34.2653 80.648 35.5161 79.5989 35.5161 77.985C35.5161 76.3912 34.2653 75.3018 32.5707 75.3018ZM35.8591 83.7951C39.5509 83.7951 41.8507 85.0661 41.8507 87.2449C41.8507 89.4035 39.5509 90.6946 35.8591 90.6744C32.1269 90.6946 29.7867 89.4035 29.7867 87.2449C29.7867 85.0661 32.1269 83.7951 35.8591 83.7951ZM35.8591 85.3485C33.2364 85.3485 31.683 86.0344 31.7032 87.2449C31.683 88.4755 33.2364 89.1412 35.8591 89.1412C38.4615 89.1412 39.9746 88.4755 39.9746 87.2449C39.9746 86.0344 38.4615 85.3485 35.8591 85.3485ZM58.5104 72.659V78.4692H61.1331V80.0629H58.5104V86.1756H56.5939V72.659H58.5104ZM55.101 74.7571V76.3105H44.3281V74.7571H48.7664V72.6389H50.6829V74.7571H55.101ZM49.7146 77.178C52.317 77.178 54.0923 78.5297 54.0923 80.5874C54.0923 82.6452 52.317 83.9767 49.7146 83.9767C47.0919 83.9767 45.3166 82.6452 45.3166 80.5874C45.3166 78.5297 47.0919 77.178 49.7146 77.178ZM49.7146 78.6507C48.1813 78.6507 47.1525 79.3972 47.1726 80.5874C47.1525 81.7575 48.1813 82.4838 49.7146 82.4838C51.2478 82.4838 52.2767 81.7575 52.2968 80.5874C52.2767 79.3972 51.2478 78.6507 49.7146 78.6507ZM59.2771 88.7781V90.3315H47.0516V85.1064H48.9681V88.7781H59.2771ZM67.2175 89H64.8572L70.1024 74.394H72.6645L77.9299 89H75.5696L74.2381 85.1468H68.549L67.2175 89ZM69.1946 83.2908H73.5925L71.4339 77.057H71.333L69.1946 83.2908ZM80.9722 74.394V89H78.753V74.394H80.9722ZM92.6045 77.2385C92.6045 80.5471 94.4605 83.8355 97.2244 85.0862L96.0543 86.6195C93.9965 85.5906 92.4532 83.5429 91.6563 81.0716C90.8595 83.6741 89.2758 85.873 87.1979 86.9624L85.9874 85.409C88.7916 84.0775 90.6678 80.5874 90.6678 77.2385V74.1519H92.6045V77.2385ZM101.158 72.6389V90.7551H99.262V80.2041H95.2271V78.6507H99.262V72.6389H101.158ZM117.879 72.6389V90.7551H115.962V72.6389H117.879ZM105.835 74.1519V78.7919H110.697V74.1519H112.593V86.4177H103.918V74.1519H105.835ZM105.835 84.8442H110.697V80.305H105.835V84.8442ZM128.91 75.201C128.91 78.1464 132.057 80.9304 135.527 81.5558L134.639 83.1495C131.754 82.5241 129.091 80.6278 127.921 78.0859C126.731 80.6076 124.078 82.504 121.183 83.1495L120.336 81.5558C123.765 80.9102 126.892 78.1464 126.892 75.201V73.8291H128.91V75.201ZM136.273 86.7405V88.3343H119.731V86.7405H136.273ZM153.074 80.9304V82.4031H136.531V80.9304H153.074ZM151.037 83.6741V87.6483H140.425V89.1412H151.601V90.4929H138.508V86.3774H149.14V85.0459H138.488V83.6741H151.037ZM150.996 73.1029V77.0166H140.546V78.3885H151.299V79.7401H138.65V75.7457H149.08V74.4545H138.609V73.1029H150.996ZM166.542 74.2326V82.6654H158.089V74.2326H166.542ZM159.966 75.786V81.1523H164.666V75.786H159.966ZM171.586 72.6187V78.0253H174.208V79.6393H171.586V85.873H169.669V72.6187H171.586ZM172.352 88.7781V90.3315H160.127V84.6021H162.043V88.7781H172.352ZM191.09 79.7401V81.3137H188.286V90.6946H186.369V72.6389H188.286V79.7401H191.09ZM176.787 74.394V84.5617C179.308 84.5617 181.941 84.3499 184.816 83.7548L185.038 85.3687C181.951 85.9941 179.086 86.1555 176.383 86.1555H174.89V74.394H176.787ZM207.568 86.8817V88.4755H191.025V86.8817H198.308V83.1697H192.922V73.8695H194.838V76.9763H203.715V73.8695H205.611V83.1697H200.205V86.8817H207.568ZM194.838 81.6163H203.715V78.5297H194.838V81.6163ZM213.354 77.5815C213.354 80.4664 214.565 83.553 216.985 85.0257L215.916 86.4984C214.222 85.4796 213.072 83.6741 212.466 81.576C211.791 83.8758 210.55 85.8327 208.795 86.9019L207.604 85.4695C210.167 83.9363 211.498 80.7488 211.498 77.6622V74.2931H213.354V77.5815ZM223.401 72.6389V90.7148H221.565V72.6389H223.401ZM219.648 72.9818V89.8271H217.833V80.5874H215.029V78.9937H217.833V72.9818H219.648ZM241.21 86.8616V88.4553H224.668V86.8616H228.622V82.1408C227.139 81.3238 226.241 80.0226 226.241 78.4086C226.241 75.5641 229.025 73.6879 232.899 73.6879C236.792 73.6879 239.576 75.5641 239.576 78.4086C239.576 80.0024 238.709 81.2834 237.256 82.1005V86.8616H241.21ZM232.899 75.2211C230.054 75.2211 228.097 76.4518 228.097 78.4086C228.097 80.3453 230.054 81.6163 232.899 81.6163C235.723 81.6163 237.72 80.3453 237.72 78.4086C237.72 76.4518 235.723 75.2211 232.899 75.2211ZM230.518 86.8616H235.32V82.8268C234.583 83.0184 233.766 83.1092 232.899 83.1092C232.051 83.1092 231.244 83.0184 230.518 82.8469V86.8616ZM244.817 74.394L244.636 84.7836H242.639L242.457 74.394H244.817ZM243.647 89.1412C242.861 89.1412 242.195 88.4956 242.215 87.7089C242.195 86.9221 242.861 86.2765 243.647 86.2765C244.414 86.2765 245.08 86.9221 245.08 87.7089C245.08 88.4956 244.414 89.1412 243.647 89.1412Z" fill="#26247B"/>
</svg>
