<svg width="216" height="74" viewBox="0 0 216 74" fill="none" xmlns="http://www.w3.org/2000/svg">
<path d="M206.475 0L8.52535 0C3.81987 0 0 3.81073 0 8.50496V53.1693C0 57.8635 3.81987 61.6742 8.52535 61.6742H153.521L161.107 73.0106L168.694 61.6742H206.485C211.191 61.6742 215.011 57.8635 215.011 53.1693V8.50496C215.011 3.81073 211.191 0 206.485 0H206.475Z" fill="url(#paint0_linear_115_58)"/>
<g filter="url(#filter0_d_115_58)">
<path d="M21.5569 17.4793C21.5569 20.1631 22.2966 22.7093 24.4987 23.8792L23.2084 25.6168C21.8493 24.877 20.9719 23.6125 20.4558 22.0556C19.8967 23.7846 18.9591 25.2297 17.5484 26.0813L16.172 24.4813C18.529 23.0706 19.4064 20.2836 19.4236 17.6342V14.9332H21.5569V17.4793ZM30.0384 13.5912V29.2468H27.9395V21.4534H26.5804V28.5243H24.5159V13.8149H26.5804V19.6986H27.9395V13.5912H30.0384ZM45.14 25.7028V27.5092H30.8091V25.7028H36.8477V23.3459H32.4607V18.0815H41.3207V16.3611H32.4435V14.6063H43.4884V19.8019H34.6628V21.5567H43.8497V23.3459H39.0326V25.7028H45.14ZM58.5212 13.6085V29.2468H56.2847V25.7888H53.102V24.1373H56.2847V13.6085H58.5212ZM45.085 21.5395C48.0096 21.5395 51.9149 21.5223 55.2869 21.075L55.4073 22.6749C54.031 22.9244 52.6117 23.0792 51.2268 23.1738V28.7823H49.0075V23.2771C47.7086 23.3201 46.4785 23.3287 45.3602 23.3287L45.085 21.5395ZM50.2117 14.2278C52.5171 14.2278 54.2202 15.5697 54.2375 17.4449C54.2202 19.3718 52.5171 20.6449 50.2117 20.6449C47.872 20.6449 46.186 19.3718 46.186 17.4449C46.186 15.5697 47.872 14.2278 50.2117 14.2278ZM50.2117 15.8966C49.0419 15.8966 48.2505 16.4987 48.2505 17.4449C48.2505 18.4256 49.0419 18.9761 50.2117 18.9761C51.3472 18.9761 52.1386 18.4256 52.1558 17.4449C52.1386 16.4987 51.3472 15.8966 50.2117 15.8966ZM65.6058 16.688C65.6058 18.5632 66.7585 20.4728 69.3391 21.247L68.2208 22.9674C66.466 22.4169 65.2273 21.29 64.522 19.8707C63.808 21.4104 62.5349 22.6491 60.7027 23.2599L59.5672 21.5395C62.165 20.6965 63.3693 18.6664 63.3693 16.688V16.4643H60.1522V14.7095H68.7541V16.4643H65.6058V16.688ZM72.6078 13.6085V24.9286H70.4057V13.6085H72.6078ZM73.0207 27.2168V28.9716H62.1134V23.8964H64.3327V27.2168H73.0207Z" fill="#00EEFF"/>
<path d="M79.6889 27.6641H76.9019L81.2201 15.2084H84.5405L88.8414 27.6641H86.0716L85.1426 24.791H80.6352L79.6889 27.6641ZM81.2889 22.7781H84.4888L82.9233 18.0127H82.8373L81.2889 22.7781ZM91.9519 15.2084V27.6641H89.3713V15.2084H91.9519ZM96.3492 27.6641V15.2084H101.235C104.074 15.2084 105.691 16.946 105.691 19.4062C105.691 21.9007 104.039 23.6039 101.166 23.6039H98.9298V27.6641H96.3492ZM98.9298 21.5223H100.753C102.285 21.5223 103.024 20.6621 103.024 19.4062C103.024 18.1675 102.285 17.3245 100.753 17.3245H98.9298V21.5223ZM110.436 27.8533C107.614 27.8533 105.86 25.9093 105.86 23.019C105.86 20.1287 107.614 18.2019 110.436 18.2019C113.257 18.2019 115.029 20.1287 115.029 23.019C115.029 25.9093 113.257 27.8533 110.436 27.8533ZM110.453 25.8749C111.761 25.8749 112.431 24.6534 112.431 23.019C112.431 21.3674 111.761 20.1459 110.453 20.1459C109.128 20.1459 108.44 21.3674 108.44 23.019C108.44 24.6534 109.128 25.8749 110.453 25.8749ZM115.748 27.6641V18.3223H118.209V19.9395H118.312C118.656 18.7868 119.516 18.1847 120.565 18.1847C120.824 18.1847 121.15 18.2191 121.374 18.2707V20.5416C121.133 20.4728 120.651 20.404 120.29 20.404C119.138 20.404 118.295 21.2126 118.295 22.348V27.6641H115.748ZM127.117 18.3223V20.232H125.362V24.791C125.362 25.5308 125.723 25.72 126.239 25.7372C126.497 25.7372 126.945 25.72 127.254 25.6856V27.6985C126.979 27.7501 126.532 27.7845 125.895 27.7845C124.054 27.7845 122.799 26.9587 122.816 25.1523V20.232H121.525V18.3223H122.816V16.0858H125.362V18.3223H127.117ZM127.389 25.0491C127.389 22.9674 129.075 22.2792 130.864 22.176C131.535 22.133 132.791 22.0728 133.186 22.0556V21.2986C133.169 20.5244 132.636 20.0599 131.69 20.0599C130.829 20.0599 130.279 20.4556 130.141 21.0922H127.715C127.87 19.475 129.281 18.2019 131.758 18.2019C133.788 18.2019 135.715 19.1137 135.715 21.3674V27.6641H133.307V26.3738H133.238C132.773 27.234 131.896 27.8361 130.502 27.8361C128.713 27.8361 127.389 26.9071 127.389 25.0491ZM129.832 24.9802C129.832 25.7028 130.416 26.0813 131.225 26.0813C132.378 26.0813 133.203 25.3071 133.186 24.3265V23.6383C132.799 23.6555 131.715 23.7158 131.277 23.7588C130.399 23.8448 129.832 24.2577 129.832 24.9802ZM139.325 15.2084V27.6641H136.778V15.2084H139.325ZM148.161 17.4793C148.161 20.1631 148.9 22.7093 151.102 23.8792L149.812 25.6168C148.453 24.877 147.576 23.6125 147.06 22.0556C146.5 23.7846 145.563 25.2297 144.152 26.0813L142.776 24.4813C145.133 23.0706 146.01 20.2836 146.027 17.6342V14.9332H148.161V17.4793ZM156.642 13.5912V29.2468H154.543V21.4534H153.184V28.5243H151.12V13.8149H153.184V19.6986H154.543V13.5912H156.642ZM165.757 15.002V25.5136H158.187V15.002H165.757ZM160.389 16.7224V23.776H163.623V16.7224H160.389ZM170.522 13.5912V29.2812H168.303V13.5912H170.522ZM175.453 27.6641L175.436 25.7888L179.909 21.6771C181.079 20.5588 181.698 19.8707 181.698 18.8901C181.698 17.789 180.855 17.1009 179.719 17.1009C178.55 17.1009 177.793 17.8406 177.793 19.0277H175.332C175.315 16.5847 177.122 15.0364 179.754 15.0364C182.42 15.0364 184.192 16.5503 184.192 18.718C184.192 20.1287 183.504 21.2986 180.941 23.6211L179.049 25.462V25.5308H184.365V27.6641H175.453ZM186.838 27.8189C186.03 27.8189 185.376 27.1651 185.393 26.3738C185.376 25.5824 186.03 24.9458 186.838 24.9458C187.595 24.9458 188.266 25.5824 188.266 26.3738C188.266 27.1651 187.595 27.8189 186.838 27.8189ZM193.751 27.8361C190.637 27.8361 188.745 25.5136 188.745 21.4362C188.745 17.3589 190.637 15.0364 193.751 15.0364C196.865 15.0364 198.757 17.3761 198.757 21.4362C198.757 25.5308 196.865 27.8361 193.751 27.8361ZM193.751 25.7028C195.196 25.7028 196.125 24.3093 196.108 21.4362C196.108 18.5976 195.196 17.1525 193.751 17.1525C192.306 17.1525 191.394 18.5976 191.394 21.4362C191.377 24.3093 192.306 25.7028 193.751 25.7028Z" fill="white"/>
<path d="M32.708 34.8848V39.9678H34.8174V41.1104H32.708V48.0391H31.3164V34.8848H32.708ZM29.1777 36.1445V37.2725H24.4316V43.6152C26.6362 43.6079 28.2915 43.5127 30.1592 43.1758L30.335 44.3477C28.2842 44.7139 26.541 44.7871 24.0947 44.7725H23.04V36.1445H29.1777ZM46.8701 36.7451V37.8877H45.0098V39.5576H46.8701V40.7148H45.0098V42.6338H43.6182V34.8848H45.0098V36.7451H46.8701ZM38.3887 35.6465C40.3955 35.6465 41.875 36.9209 41.8896 38.7666C41.875 40.5977 40.3955 41.8721 38.3887 41.8867C36.3818 41.8721 34.8877 40.5977 34.9023 38.7666C34.8877 36.9209 36.3818 35.6465 38.3887 35.6465ZM38.3887 36.8184C37.1582 36.8184 36.25 37.6094 36.2646 38.7666C36.25 39.9385 37.1582 40.7002 38.3887 40.7148C39.6191 40.7002 40.5273 39.9385 40.5273 38.7666C40.5273 37.6094 39.6191 36.8184 38.3887 36.8184ZM40.7764 42.9854C43.457 42.9854 45.127 43.9082 45.127 45.4902C45.127 47.0576 43.457 47.9951 40.7764 47.9805C38.0664 47.9951 36.3672 47.0576 36.3672 45.4902C36.3672 43.9082 38.0664 42.9854 40.7764 42.9854ZM40.7764 44.1133C38.8721 44.1133 37.7441 44.6113 37.7588 45.4902C37.7441 46.3838 38.8721 46.8672 40.7764 46.8672C42.666 46.8672 43.7646 46.3838 43.7646 45.4902C43.7646 44.6113 42.666 44.1133 40.7764 44.1133ZM57.2236 34.8994V39.1182H59.1279V40.2754H57.2236V44.7139H55.832V34.8994H57.2236ZM54.748 36.4229V37.5508H46.9258V36.4229H50.1484V34.8848H51.54V36.4229H54.748ZM50.8369 38.1807C52.7266 38.1807 54.0156 39.1621 54.0156 40.6562C54.0156 42.1504 52.7266 43.1172 50.8369 43.1172C48.9326 43.1172 47.6436 42.1504 47.6436 40.6562C47.6436 39.1621 48.9326 38.1807 50.8369 38.1807ZM50.8369 39.25C49.7236 39.25 48.9766 39.792 48.9912 40.6562C48.9766 41.5059 49.7236 42.0332 50.8369 42.0332C51.9502 42.0332 52.6973 41.5059 52.7119 40.6562C52.6973 39.792 51.9502 39.25 50.8369 39.25ZM57.7803 46.6035V47.7314H48.9033V43.9375H50.2949V46.6035H57.7803ZM63.5459 46.7646H61.832L65.6406 36.1592H67.501L71.3242 46.7646H69.6104L68.6436 43.9668H64.5127L63.5459 46.7646ZM64.9814 42.6191H68.1748L66.6074 38.0928H66.5342L64.9814 42.6191ZM73.5332 36.1592V46.7646H71.9219V36.1592H73.5332ZM81.9795 38.2246C81.9795 40.627 83.3271 43.0146 85.334 43.9229L84.4844 45.0361C82.9902 44.2891 81.8696 42.8022 81.291 41.0078C80.7124 42.8975 79.5625 44.4941 78.0537 45.2852L77.1748 44.1572C79.2109 43.1904 80.5732 40.6562 80.5732 38.2246V35.9834H81.9795V38.2246ZM88.1904 34.8848V48.0391H86.8135V40.3779H83.8838V39.25H86.8135V34.8848H88.1904ZM100.331 34.8848V48.0391H98.9395V34.8848H100.331ZM91.5859 35.9834V39.3525H95.1162V35.9834H96.4932V44.8896H90.1943V35.9834H91.5859ZM91.5859 43.7471H95.1162V40.4512H91.5859V43.7471ZM108.341 36.7451C108.341 38.8838 110.626 40.9053 113.146 41.3594L112.501 42.5166C110.406 42.0625 108.473 40.6855 107.623 38.8398C106.759 40.6709 104.833 42.0479 102.73 42.5166L102.115 41.3594C104.605 40.8906 106.876 38.8838 106.876 36.7451V35.749H108.341V36.7451ZM113.688 45.124V46.2812H101.676V45.124H113.688ZM125.887 40.9053V41.9746H113.875V40.9053H125.887ZM124.407 42.8975V45.7832H116.702V46.8672H124.817V47.8486H115.311V44.8604H123.03V43.8936H115.296V42.8975H124.407ZM124.378 35.2217V38.0635H116.79V39.0596H124.598V40.041H115.413V37.1406H122.986V36.2031H115.384V35.2217H124.378ZM135.666 36.042V42.165H129.528V36.042H135.666ZM130.891 37.1699V41.0664H134.304V37.1699H130.891ZM139.328 34.8701V38.7959H141.232V39.9678H139.328V44.4941H137.937V34.8701H139.328ZM139.885 46.6035V47.7314H131.008V43.5713H132.399V46.6035H139.885ZM153.49 40.041V41.1836H151.454V47.9951H150.062V34.8848H151.454V40.041H153.49ZM143.104 36.1592V43.542C144.936 43.542 146.847 43.3882 148.935 42.9561L149.096 44.1279C146.854 44.582 144.774 44.6992 142.812 44.6992H141.728V36.1592H143.104ZM165.455 45.2266V46.3838H153.443V45.2266H158.731V42.5312H154.82V35.7783H156.212V38.0342H162.657V35.7783H164.034V42.5312H160.108V45.2266H165.455ZM156.212 41.4033H162.657V39.1621H156.212V41.4033ZM169.656 38.4736C169.656 40.5684 170.535 42.8096 172.293 43.8789L171.517 44.9482C170.286 44.2085 169.451 42.8975 169.012 41.374C168.521 43.0439 167.62 44.4648 166.346 45.2412L165.481 44.2012C167.342 43.0879 168.309 40.7734 168.309 38.5322V36.0859H169.656V38.4736ZM176.951 34.8848V48.0098H175.618V34.8848H176.951ZM174.227 35.1338V47.3652H172.908V40.6562H170.872V39.499H172.908V35.1338H174.227ZM189.883 45.2119V46.3691H177.871V45.2119H180.742V41.7842C179.666 41.1909 179.014 40.2461 179.014 39.0742C179.014 37.0088 181.035 35.6465 183.848 35.6465C186.675 35.6465 188.696 37.0088 188.696 39.0742C188.696 40.2314 188.066 41.1616 187.012 41.7549V45.2119H189.883ZM183.848 36.7598C181.782 36.7598 180.361 37.6533 180.361 39.0742C180.361 40.4805 181.782 41.4033 183.848 41.4033C185.898 41.4033 187.349 40.4805 187.349 39.0742C187.349 37.6533 185.898 36.7598 183.848 36.7598ZM182.119 45.2119H185.605V42.2822C185.071 42.4214 184.478 42.4873 183.848 42.4873C183.232 42.4873 182.646 42.4214 182.119 42.2969V45.2119ZM192.502 36.1592L192.37 43.7031H190.92L190.788 36.1592H192.502ZM191.652 46.8672C191.081 46.8672 190.598 46.3984 190.612 45.8271C190.598 45.2559 191.081 44.7871 191.652 44.7871C192.209 44.7871 192.692 45.2559 192.692 45.8271C192.692 46.3984 192.209 46.8672 191.652 46.8672Z" fill="white"/>
</g>
<defs>
<filter id="filter0_d_115_58" x="16" y="2" width="184" height="57.4287" filterUnits="userSpaceOnUse" color-interpolation-filters="sRGB">
<feFlood flood-opacity="0" result="BackgroundImageFix"/>
<feColorMatrix in="SourceAlpha" type="matrix" values="0 0 0 0 0 0 0 0 0 0 0 0 0 0 0 0 0 0 127 0" result="hardAlpha"/>
<feOffset/>
<feComposite in2="hardAlpha" operator="out"/>
<feColorMatrix type="matrix" values="0 0 0 0 0 0 0 0 0 0 0 0 0 0 0 0 0 0 0.54 0"/>
<feBlend mode="normal" in2="BackgroundImageFix" result="effect1_dropShadow_115_58"/>
<feBlend mode="normal" in="SourceGraphic" in2="effect1_dropShadow_115_58" result="shape"/>
</filter>
<linearGradient id="paint0_linear_115_58" x1="-97.8861" y1="82.4949" x2="121.168" y2="-113.289" gradientUnits="userSpaceOnUse">
<stop stop-color="#67A8FF"/>
<stop offset="0.673077" stop-color="#5066DD"/>
<stop offset="0.995192" stop-color="#26247B"/>
</linearGradient>
</defs>
</svg>
