<svg width="122" height="56" viewBox="0 0 122 56" fill="none" xmlns="http://www.w3.org/2000/svg">
<path d="M99.9238 0H22.0762C9.88781 0 0 9.92007 0 22.1482C0 34.3764 9.88781 44.2964 22.0762 44.2964H55.7947L63.5794 56L71.3642 44.2964H99.9238C112.112 44.2964 122 34.3764 122 22.1482C122 9.92007 112.112 0 99.9238 0Z" fill="url(#paint0_linear_113_38)"/>
<path d="M15.2456 17.4588L20.31 23.3766V17.4588H22.7442V27H20.31L15.2456 21.0822V27H12.8113V17.4588H15.2456ZM28.0713 27.2238C27.1293 27.2238 26.2946 27.056 25.5671 26.7202C24.8396 26.3844 24.2754 25.9088 23.8743 25.2932C23.4826 24.6777 23.2867 23.9688 23.2867 23.1667C23.2867 22.374 23.4733 21.6698 23.8463 21.0542C24.2287 20.4387 24.7604 19.963 25.4412 19.6273C26.122 19.2822 26.8962 19.1096 27.7635 19.1096C28.6309 19.1096 29.405 19.2822 30.0859 19.6273C30.7667 19.963 31.2937 20.4387 31.6667 21.0542C32.0491 21.6698 32.2403 22.374 32.2403 23.1667C32.2403 23.4092 32.2124 23.6797 32.1564 23.9782H25.8329C25.9915 24.3606 26.2619 24.659 26.6443 24.8735C27.0361 25.0787 27.5117 25.1813 28.0713 25.1813C28.5003 25.1813 28.9807 25.1253 29.5123 25.0134C30.0532 24.8922 30.5569 24.7383 31.0232 24.5517L31.8206 26.3844C31.2331 26.6549 30.6128 26.8601 29.96 27C29.3164 27.1492 28.6869 27.2238 28.0713 27.2238ZM29.7361 22.2994C29.5962 21.8983 29.3537 21.5905 29.0086 21.376C28.6636 21.1522 28.2485 21.0403 27.7635 21.0403C27.2786 21.0403 26.8635 21.1522 26.5184 21.376C26.1733 21.5905 25.9308 21.8983 25.7909 22.2994H29.7361ZM34.2142 19.3335L35.6552 24.9015H36.1588L37.5998 19.3335H39.8102L41.2512 24.9015H41.7548L43.1958 19.3335H45.714L43.3916 27H39.8662L38.705 22.6631L37.5438 27H34.0183L31.696 19.3335H34.2142Z" fill="#00EEFF"/>
<path d="M53.7533 27.2238C51.9346 27.2238 50.2885 26.8368 48.8149 26.0627L49.6683 24.0901C50.3678 24.4165 51.0393 24.659 51.6828 24.8176C52.3357 24.9668 53.0445 25.0414 53.8093 25.0414C54.6207 25.0414 55.2456 24.9621 55.684 24.8036C56.1223 24.6357 56.3415 24.4025 56.3415 24.1041C56.3415 23.8522 56.1549 23.6797 55.7819 23.5864C55.4088 23.4932 54.7979 23.4046 53.9492 23.3206C52.9233 23.2274 52.0699 23.1108 51.389 22.9709C50.7175 22.8217 50.1299 22.5465 49.6263 22.1455C49.132 21.7351 48.8848 21.1429 48.8848 20.3687C48.8848 19.3801 49.2998 18.6107 50.1299 18.0604C50.96 17.5101 52.1398 17.235 53.6694 17.235C55.3482 17.235 56.9151 17.5847 58.37 18.2842L57.5166 20.2568C56.9197 19.9863 56.3042 19.7812 55.67 19.6413C55.0357 19.492 54.3502 19.4174 53.6134 19.4174C52.8486 19.4174 52.2657 19.492 51.8647 19.6413C51.4636 19.7812 51.2631 19.9863 51.2631 20.2568C51.2631 20.4993 51.4496 20.6672 51.8227 20.7605C52.1958 20.8444 52.802 20.9237 53.6414 20.9983C54.686 21.0916 55.5534 21.2128 56.2436 21.362C56.9431 21.5019 57.5493 21.7817 58.0623 22.2014C58.5752 22.6118 58.8317 23.2087 58.8317 23.9921C58.8317 25.0088 58.3887 25.8015 57.5027 26.3704C56.6259 26.9394 55.3762 27.2238 53.7533 27.2238ZM65.9426 17.4588L69.9578 27H67.3276L66.6421 25.3072H61.5498L60.8643 27H58.2341L62.2493 17.4588H65.9426ZM64.3757 19.6692H63.8161L62.3892 23.2087H65.8027L64.3757 19.6692ZM73.8696 17.4588L76.1639 21.9776L78.4583 17.4588H82.1516V27H79.7174V19.949L77.1992 24.7476H75.1287L72.6105 19.949V27H70.1762V17.4588H73.8696ZM85.819 17.4588V27H83.3848V17.4588H85.819ZM94.2806 21.9776C94.9894 21.5206 95.3439 21.0309 95.3439 20.5086C95.3439 20.1449 95.176 19.8604 94.8402 19.6552C94.5138 19.4407 94.0614 19.3335 93.4832 19.3335C93.0635 19.3335 92.6158 19.3988 92.1401 19.5293C91.6645 19.6599 91.1049 19.8744 90.4613 20.1729L89.6359 18.2842C90.3821 17.9112 91.0676 17.6454 91.6925 17.4868C92.3174 17.3189 92.9516 17.235 93.5951 17.235C94.4438 17.235 95.1806 17.3702 95.8055 17.6407C96.4304 17.9018 96.9107 18.2796 97.2465 18.7739C97.5823 19.2682 97.7501 19.8464 97.7501 20.5086C97.7501 21.1522 97.5823 21.7164 97.2465 22.2014C96.9201 22.6771 96.3791 23.1434 95.6237 23.6004L93.4412 24.9015H97.7501V27H89.6359V24.9015L94.2806 21.9776ZM100.781 24.6777V27H98.3465V24.6777H100.781ZM105.62 27.2238C104.622 27.2238 103.755 27.0233 103.018 26.6223C102.291 26.2119 101.731 25.6336 101.339 24.8875C100.948 24.132 100.752 23.246 100.752 22.2294C100.752 21.2128 100.948 20.3314 101.339 19.5853C101.731 18.8298 102.291 18.2516 103.018 17.8505C103.755 17.4402 104.622 17.235 105.62 17.235C106.618 17.235 107.481 17.4402 108.209 17.8505C108.945 18.2516 109.51 18.8298 109.901 19.5853C110.293 20.3314 110.489 21.2128 110.489 22.2294C110.489 23.246 110.293 24.132 109.901 24.8875C109.51 25.6336 108.945 26.2119 108.209 26.6223C107.481 27.0233 106.618 27.2238 105.62 27.2238ZM103.242 22.2294C103.242 24.1227 104.035 25.0694 105.62 25.0694C107.206 25.0694 107.999 24.1227 107.999 22.2294C107.999 20.3361 107.206 19.3894 105.62 19.3894C104.035 19.3894 103.242 20.3361 103.242 22.2294Z" fill="white"/>
<defs>
<linearGradient id="paint0_linear_113_38" x1="-12.5" y1="46.5" x2="129" y2="4.5" gradientUnits="userSpaceOnUse">
<stop stop-color="#67A8FF"/>
<stop offset="0.673077" stop-color="#5066DD"/>
<stop offset="0.995192" stop-color="#26247B"/>
</linearGradient>
</defs>
</svg>
